<svg width="1440" height="1024" viewBox="0 0 1440 1024" fill="none" xmlns="http://www.w3.org/2000/svg">
<rect width="1440" height="1024" fill="url(#paint0_linear_177_930)"/>
<g filter="url(#filter0_f_177_930)">
<path d="M629 295.502C629 431.364 437.862 744.001 302 744.001C166.138 744.001 56 633.863 56 498.001C56 362.139 166.138 252.001 302 252.001C437.862 252.001 629 159.64 629 295.502Z" fill="url(#paint1_linear_177_930)"/>
</g>
<g filter="url(#filter1_f_177_930)">
<path d="M1330 311.512C1330 426.663 1294.23 582.512 1136 582.512C977.77 582.512 721 388.663 721 273.512C721 158.36 849.27 65.0117 1007.5 65.0117C1165.73 65.0117 1330 196.36 1330 311.512Z" fill="url(#paint2_linear_177_930)"/>
</g>
<g filter="url(#filter2_f_177_930)">
<path d="M1367.5 762C1367.5 906.699 1250.2 1024 1105.5 1024C960.801 1024 428.5 967.199 428.5 822.5C428.5 677.801 960.801 500 1105.5 500C1250.2 500 1367.5 617.301 1367.5 762Z" fill="url(#paint3_linear_177_930)"/>
</g>
<defs>
<filter id="filter0_f_177_930" x="-144" y="21.3359" width="973" height="922.664" filterUnits="userSpaceOnUse" color-interpolation-filters="sRGB">
<feFlood flood-opacity="0" result="BackgroundImageFix"/>
<feBlend mode="normal" in="SourceGraphic" in2="BackgroundImageFix" result="shape"/>
<feGaussianBlur stdDeviation="100" result="effect1_foregroundBlur_177_930"/>
</filter>
<filter id="filter1_f_177_930" x="521" y="-134.988" width="1009" height="917.5" filterUnits="userSpaceOnUse" color-interpolation-filters="sRGB">
<feFlood flood-opacity="0" result="BackgroundImageFix"/>
<feBlend mode="normal" in="SourceGraphic" in2="BackgroundImageFix" result="shape"/>
<feGaussianBlur stdDeviation="100" result="effect1_foregroundBlur_177_930"/>
</filter>
<filter id="filter2_f_177_930" x="228.5" y="300" width="1339" height="924" filterUnits="userSpaceOnUse" color-interpolation-filters="sRGB">
<feFlood flood-opacity="0" result="BackgroundImageFix"/>
<feBlend mode="normal" in="SourceGraphic" in2="BackgroundImageFix" result="shape"/>
<feGaussianBlur stdDeviation="100" result="effect1_foregroundBlur_177_930"/>
</filter>
<linearGradient id="paint0_linear_177_930" x1="720" y1="0" x2="720" y2="1024" gradientUnits="userSpaceOnUse">
<stop stop-color="#47049C"/>
<stop offset="1" stop-color="#00D1FF"/>
</linearGradient>
<linearGradient id="paint1_linear_177_930" x1="333" y1="228" x2="333" y2="720" gradientUnits="userSpaceOnUse">
<stop stop-color="#DBFF00"/>
<stop offset="1" stop-color="#8337FF"/>
</linearGradient>
<linearGradient id="paint2_linear_177_930" x1="1049.5" y1="69" x2="999.27" y2="491.17" gradientUnits="userSpaceOnUse">
<stop stop-color="#FFB800"/>
<stop offset="1" stop-color="#00DAF8"/>
</linearGradient>
<linearGradient id="paint3_linear_177_930" x1="733" y1="669" x2="1211.5" y2="894" gradientUnits="userSpaceOnUse">
<stop stop-color="#00FAFA"/>
<stop offset="0.458333" stop-color="#1477EF"/>
<stop offset="1" stop-color="#F156FF"/>
</linearGradient>
</defs>
</svg>
